<?xml version="1.0" encoding="UTF-8" standalone="no"?>
<!-- Generator: Adobe Illustrator 16.0.0, SVG Export Plug-In . SVG Version: 6.00 Build 0)  -->

<svg
   version="1.1"
   id="Capa_1"
   x="0px"
   y="0px"
   width="24"
   height="24"
   viewBox="0 0 24.000001 24.000001"
   xml:space="preserve"
   sodipodi:docname="games.svg"
   inkscape:version="1.1.2 (b8e25be833, 2022-02-05)"
   xmlns:inkscape="http://www.inkscape.org/namespaces/inkscape"
   xmlns:sodipodi="http://sodipodi.sourceforge.net/DTD/sodipodi-0.dtd"
   xmlns="http://www.w3.org/2000/svg"
   xmlns:svg="http://www.w3.org/2000/svg"><defs
   id="defs39" /><sodipodi:namedview
   id="namedview37"
   pagecolor="#ffffff"
   bordercolor="#999999"
   borderopacity="1"
   inkscape:pageshadow="0"
   inkscape:pageopacity="0"
   inkscape:pagecheckerboard="0"
   showgrid="false"
   inkscape:zoom="11.70149"
   inkscape:cx="14.912631"
   inkscape:cy="9.1441345"
   inkscape:window-width="1280"
   inkscape:window-height="737"
   inkscape:window-x="-8"
   inkscape:window-y="-8"
   inkscape:window-maximized="1"
   inkscape:current-layer="Capa_1" />
<g
   id="g4"
   style="fill:#2a7ae4;fill-opacity:1"
   transform="matrix(0.0243837,0,0,0.0243837,2.6671565e-6,1.591918e-5)">
	<path
   d="m 52.832,896.588 c 23.7,15.7 55.1,12.8 75.7,-6.8 0,0 117.9,-100.9 152.8,-128.9 10.8,-8.7 24.3,-13.399 38.2,-13.399 h 172.6 172.6 c 13.899,0 27.399,4.699 38.2,13.399 34.899,28 152.8,128.9 152.8,128.9 20.6,19.6 52,22.5 75.7,6.8 77.6,-51.6 52.1,-189.9 33.1,-266.9 -15.7,-63.8 -37.8,-126.1 -63.1,-186.7 -37.301,-89.2 -118.801,-202.8 -232.2,-178.5 -11.3,2.7 -23.9,9.3 -33.101,14.9 -9.5,5.7 -20.399,8.8 -31.5,8.8 h -72.5 v -170.6 c 0,-22.1 -17.899,-40 -40,-40 -22.1,0 -40,17.9 -40,40 v 170.5 h -72.5 c -11.1,0 -22,-3 -31.5,-8.8 -9.199,-5.5 -21.8,-12.1 -33.1,-14.9 -113.3,-24.3 -194.9,89.3 -232.2,178.5 -25.3,60.7 -47.3,123 -63.1,186.8 -18.999,77 -44.499,215.301 33.101,266.9 z m 679.799,-521.5 c 24,0 43.5,19.5 43.5,43.5 0,24 -19.5,43.5 -43.5,43.5 -24,0 -43.5,-19.5 -43.5,-43.5 0,-24 19.5,-43.5 43.5,-43.5 z m -103,126.6 c 24,0 43.5,19.5 43.5,43.5 0,24 -19.5,43.5 -43.5,43.5 -24,0 -43.5,-19.5 -43.5,-43.5 0,-24 19.5,-43.5 43.5,-43.5 z m -431.599,-48.5 h 50.6 v -50.6 c 0,-16.6 13.4,-30 30,-30 16.6,0 30,13.4 30,30 v 50.6 h 50.601 c 16.6,0 30,13.4 30,30 0,16.601 -13.4,30 -30,30 h -50.601 v 50.601 c 0,16.6 -13.399,30 -30,30 -16.601,0 -30,-13.4 -30,-30 v -50.601 h -50.6 c -16.6,0 -30,-13.399 -30,-30 0,-16.6 13.5,-30 30,-30 z"
   id="path2"
   style="fill:#2a7ae4;fill-opacity:1" />
</g>
<g
   id="g6">
</g>
<g
   id="g8">
</g>
<g
   id="g10">
</g>
<g
   id="g12">
</g>
<g
   id="g14">
</g>
<g
   id="g16">
</g>
<g
   id="g18">
</g>
<g
   id="g20">
</g>
<g
   id="g22">
</g>
<g
   id="g24">
</g>
<g
   id="g26">
</g>
<g
   id="g28">
</g>
<g
   id="g30">
</g>
<g
   id="g32">
</g>
<g
   id="g34">
</g>
</svg>
