<?xml version="1.0" encoding="UTF-8" standalone="no"?>
<!-- Generator: Adobe Illustrator 19.0.0, SVG Export Plug-In . SVG Version: 6.00 Build 0)  -->

<svg
   version="1.1"
   id="Layer_1"
   x="0px"
   y="0px"
   viewBox="0 0 25 29"
   xml:space="preserve"
   sodipodi:docname="java.svg"
   inkscape:version="1.1.2 (b8e25be833, 2022-02-05)"
   width="25"
   height="29"
   xmlns:inkscape="http://www.inkscape.org/namespaces/inkscape"
   xmlns:sodipodi="http://sodipodi.sourceforge.net/DTD/sodipodi-0.dtd"
   xmlns="http://www.w3.org/2000/svg"
   xmlns:svg="http://www.w3.org/2000/svg"><defs
   id="defs57">
	
	
	
	
	
	
	
	
	
	















</defs><sodipodi:namedview
   id="namedview55"
   pagecolor="#ffffff"
   bordercolor="#999999"
   borderopacity="1"
   inkscape:pageshadow="0"
   inkscape:pageopacity="0"
   inkscape:pagecheckerboard="0"
   showgrid="false"
   inkscape:zoom="8.2262624"
   inkscape:cx="-5.1055994"
   inkscape:cy="24.190816"
   inkscape:window-width="1280"
   inkscape:window-height="737"
   inkscape:window-x="-8"
   inkscape:window-y="-8"
   inkscape:window-maximized="1"
   inkscape:current-layer="Layer_1"
   width="23px" />















<path
   style="fill:#2a7ae4;fill-opacity:1;stroke-width:0.0941759"
   d="m 11.793255,14.195334 c 0,0 -1.8898785,-2.68051 -1.8188956,-4.6439643 0.050906,-1.3978947 4.3344556,-2.7850373 6.0187366,-4.7954604 1.68417,-2.0157585 -0.205598,-3.9737968 -0.205598,-3.9737968 0,0 0.418327,1.4447818 -0.703905,2.9417867 -1.114991,1.4917502 -5.2510897,2.3722652 -6.8627419,4.952291 -1.6060568,2.5813188 3.5724039,5.5191438 3.5724039,5.5191438 z"
   id="path6" /><path
   style="fill:#2a7ae4;fill-opacity:1;stroke-width:0.0941759"
   d="m 18.870482,6.0438606 c 0,0 -6.444305,1.8053305 -6.444305,3.8679765 0,2.0680629 1.747913,2.7381489 2.031735,3.4082369 0.278227,0.670168 -0.48931,1.806705 -0.48931,1.806705 0,0 2.520935,-1.293368 2.095366,-2.785037 -0.418327,-1.497086 -2.380943,-1.963535 -1.256956,-3.4605409 0.753055,-0.999835 4.06347,-2.8373405 4.06347,-2.8373405 z"
   id="path8" /><path
   style="fill:#2a7ae4;fill-opacity:1;stroke-width:0.109711"
   d="m 11.098347,17.570702 c 5.953239,-0.21273 8.119479,-2.089882 8.119479,-2.089882 -3.850521,1.051359 -14.0745831,0.980376 -14.1454564,0.212839 -0.070983,-0.773023 3.1484815,-1.406054 3.1484815,-1.406054 0,0 -5.0383603,0 -5.4566878,1.264088 -0.4200827,1.258713 2.3790796,2.231848 8.3341837,2.019009 z"
   id="path10" /><path
   style="fill:#2a7ae4;fill-opacity:1;stroke-width:0.109711"
   d="m 19.709001,21.613378 c 0,0 5.825975,-1.244121 5.25109,-4.41257 -0.696663,-3.85063 -4.761779,-1.67704 -4.761779,-1.67704 0,0 2.87201,0 3.148482,1.747913 0.283712,1.747913 -3.637793,4.341697 -3.637793,4.341697 z"
   id="path12" /><path
   style="fill:#2a7ae4;fill-opacity:1;stroke-width:0.109711"
   d="m 16.838747,18.842141 c 0,0 -1.471442,0.391009 -3.645033,0.632922 -2.91381,0.325622 -6.4443046,0.07098 -6.7207758,-0.420084 -0.2783365,-0.48931 0.4892006,-0.774887 0.4892006,-0.774887 -3.5031767,0.845761 -1.5842245,2.310071 2.5155597,2.593784 3.5231435,0.241912 8.7597515,-1.05136 8.7597515,-1.05136 z"
   id="path14" /><path
   style="fill:#2a7ae4;fill-opacity:1;stroke-width:0.109711"
   d="m 7.8080092,21.355092 c 0,0 -1.5914653,0.04181 -1.6842806,0.88043 -0.092815,0.838409 0.9803759,1.591465 4.9018794,1.818786 3.92337,0.234671 6.671736,-1.065841 6.671736,-1.065841 l -1.76799,-1.080432 c 0,0 -1.122342,0.234671 -2.850288,0.469232 -1.72619,0.234672 -5.2711664,-0.18552 -5.4130225,-0.511142 -0.1417464,-0.327377 0.1419657,-0.511033 0.1419657,-0.511033 z"
   id="path16" /><path
   style="fill:#2a7ae4;fill-opacity:1;stroke-width:0.109711"
   d="m 10.37261,26.524825 c 8.397815,-0.0073 12.093864,-1.542424 12.697712,-2.195423 0.603849,-0.654754 -0.192872,-1.165898 -0.192872,-1.165898 0,0 0.283712,0.327487 -0.08547,0.696665 -0.376528,0.376527 -3.786999,1.307863 -9.250928,1.584224 C 8.0843709,25.728106 2.1529644,24.93325 1.9673336,24.236696 1.7819223,23.532791 5.001277,22.972608 5.001277,22.972608 4.6319903,23.021651 0.14843768,23.114354 0.00658158,24.329402 -0.13505511,25.544449 1.9674433,26.524825 10.37261,26.524825 Z"
   id="path18" /><path
   style="fill:#2a7ae4;fill-opacity:1;stroke-width:0.109711"
   d="m 19.801817,27.085009 c -3.688697,0.740218 -14.8930262,0.270986 -14.8930262,0.270986 0,0 7.2828242,1.73343 15.5951762,0.283712 3.97241,-0.696664 4.19984,-2.615507 4.19984,-2.615507 0,0 -1.215158,1.307863 -4.90199,2.060809 z"
   id="path20" />
</svg>
