<?xml version="1.0" encoding="UTF-8" standalone="no"?>
<svg
   version="1.1"
   id="Uploaded to svgrepo.com"
   x="0px"
   y="0px"
   width="25"
   height="23"
   viewBox="0 0 25 23"
   xml:space="preserve"
   sodipodi:docname="ler.svg"
   inkscape:version="1.1.2 (b8e25be833, 2022-02-05)"
   xmlns:inkscape="http://www.inkscape.org/namespaces/inkscape"
   xmlns:sodipodi="http://sodipodi.sourceforge.net/DTD/sodipodi-0.dtd"
   xmlns="http://www.w3.org/2000/svg"
   xmlns:svg="http://www.w3.org/2000/svg"><defs
   id="defs9" /><sodipodi:namedview
   id="namedview7"
   pagecolor="#ffffff"
   bordercolor="#999999"
   borderopacity="1"
   inkscape:pageshadow="0"
   inkscape:pageopacity="0"
   inkscape:pagecheckerboard="0"
   showgrid="false"
   inkscape:zoom="8"
   inkscape:cx="9.625"
   inkscape:cy="17"
   inkscape:window-width="1280"
   inkscape:window-height="737"
   inkscape:window-x="-8"
   inkscape:window-y="-8"
   inkscape:window-maximized="1"
   inkscape:current-layer="Uploaded to svgrepo.com" />
<style
   type="text/css"
   id="style2">
	.puchipuchi_een{fill:#111918;}
</style>
<path
   class="puchipuchi_een"
   d="m 12.5,18.999605 c 0,0 2.5,-0.833333 5,-0.833333 2.5,0 5.833333,0.833333 5.833333,0.833333 V 3.1662717 c 0,0 0,-0.8333334 -0.819166,-1.02 C 21.3725,1.8854383 19.234167,1.499605 17.5,1.499605 c -2.5,0 -5,0.8333333 -5,0.8333333 0,0 -2.5,-0.8333333 -5,-0.8333333 -1.7341667,0 -3.8725,0.3858333 -5.0141667,0.6466667 -0.8191666,0.1866666 -0.8191666,1.02 -0.8191666,1.02 V 18.999605 c 0,0 3.3333333,-0.833333 5.8333333,-0.833333 2.5,0 5,0.833333 5,0.833333 z M 15.833333,7.332938 H 20 c 0.46,0 0.833333,0.3725 0.833333,0.833334 C 20.833333,8.627105 20.46,8.999605 20,8.999605 H 15.833333 C 15.373333,8.999605 15,8.627105 15,8.166272 15,7.705438 15.373333,7.332938 15.833333,7.332938 Z m 0,3.333334 H 20 c 0.46,0 0.833333,0.3725 0.833333,0.833333 0,0.460833 -0.373333,0.833333 -0.833333,0.833333 h -4.166667 c -0.46,0 -0.833333,-0.3725 -0.833333,-0.833333 0,-0.460833 0.373333,-0.833333 0.833333,-0.833333 z M 5,7.332938 H 9.166667 C 9.626667,7.332938 10,7.705438 10,8.166272 10,8.627105 9.626667,8.999605 9.166667,8.999605 H 5 c -0.46,0 -0.8333333,-0.3725 -0.8333333,-0.833333 C 4.1666667,7.705438 4.54,7.332938 5,7.332938 Z M 4.1666667,11.499605 C 4.1666667,11.038772 4.54,10.666272 5,10.666272 h 4.166667 c 0.46,0 0.833333,0.3725 0.833333,0.833333 0,0.460833 -0.373333,0.833333 -0.833333,0.833333 H 5 c -0.46,0 -0.8333333,-0.3725 -0.8333333,-0.833333 z M 25,3.9987717 V 20.665438 c 0,0.2325 -0.0975,0.455834 -0.269167,0.613334 -0.155,0.141666 -0.355833,0.22 -0.564166,0.22 -0.02333,0 -9.17,-0.760834 -9.17,-0.760834 -0.03583,0.426667 -0.394167,0.760834 -0.83,0.760834 h -3.333334 c -0.435833,0 -0.794166,-0.334167 -0.83,-0.760834 L 0.9025,21.496272 C 0.6683333,21.520438 0.4408333,21.437105 0.2691667,21.279605 0.0975,21.121272 0,20.898772 0,20.665438 V 3.9987717 C 0,3.5379383 0.3733333,3.1654383 0.8333333,3.1654383 v 0 16.3733337 c 0,0.2675 0.2458334,0.466666 0.5066667,0.406666 1.2066667,-0.278333 4.2891667,-0.945833 6.16,-0.945833 2.328333,0 4.713333,0.7825 4.736667,0.790833 l 0.2625,0.0875 0.263333,-0.0875 c 0.02417,-0.0083 2.409167,-0.790833 4.7375,-0.790833 1.870833,0 4.953333,0.6675 6.16,0.946667 0.260833,0.06 0.506667,-0.139167 0.506667,-0.406667 v -16.3733333 0 C 24.626667,3.1654383 25,3.5387717 25,3.9987717 Z"
   id="path4"
   style="fill:#2a7ae4;fill-opacity:1;stroke-width:0.833333" />
</svg>
