<?xml version="1.0" encoding="UTF-8" standalone="no"?>
<svg
   width="24px"
   height="24px"
   viewBox="0 0 24 24"
   id="c89cf090-0e7d-426f-9971-6ebcb30a96f7"
   data-name="Livello 1"
   version="1.1"
   sodipodi:docname="mysql.svg"
   inkscape:version="1.1.2 (b8e25be833, 2022-02-05)"
   xmlns:inkscape="http://www.inkscape.org/namespaces/inkscape"
   xmlns:sodipodi="http://sodipodi.sourceforge.net/DTD/sodipodi-0.dtd"
   xmlns="http://www.w3.org/2000/svg"
   xmlns:svg="http://www.w3.org/2000/svg"
   xmlns:rdf="http://www.w3.org/1999/02/22-rdf-syntax-ns#"
   xmlns:cc="http://creativecommons.org/ns#"
   xmlns:dc="http://purl.org/dc/elements/1.1/">
  <defs
     id="defs14" />
  <sodipodi:namedview
     id="namedview12"
     pagecolor="#ffffff"
     bordercolor="#999999"
     borderopacity="1"
     inkscape:pageshadow="0"
     inkscape:pageopacity="0"
     inkscape:pagecheckerboard="0"
     showgrid="false"
     inkscape:zoom="21.208333"
     inkscape:cx="4.3850688"
     inkscape:cy="12.023576"
     inkscape:window-width="1280"
     inkscape:window-height="737"
     inkscape:window-x="-8"
     inkscape:window-y="-8"
     inkscape:window-maximized="1"
     inkscape:current-layer="c89cf090-0e7d-426f-9971-6ebcb30a96f7" />
  <title
     id="title2">prime</title>
  <path
     d="M 12,1 C 7,1 3,2.34 3,4 v 2 c 0,1.66 4,3 9,3 5,0 9,-1.34 9,-3 V 4 C 21,2.34 17,1 12,1 Z"
     id="path4"
     style="fill:#2a7ae4;fill-opacity:1" />
  <path
     d="M 12,11 C 7,11 3,9.66 3,8 v 5 c 0,1.66 4,3 9,3 5,0 9,-1.34 9,-3 V 8 c 0,1.66 -4,3 -9,3 z"
     id="path6"
     style="fill:#2a7ae4;fill-opacity:1" />
  <path
     d="M 12,18 C 7,18 3,16.66 3,15 v 5 c 0,1.66 4,3 9,3 5,0 9,-1.34 9,-3 v -5 c 0,1.66 -4,3 -9,3 z"
     id="path8"
     style="fill:#2a7ae4;fill-opacity:1" />
  <metadata
     id="metadata831">
    <rdf:RDF>
      <cc:Work
         rdf:about="">
        <dc:title>prime</dc:title>
      </cc:Work>
    </rdf:RDF>
  </metadata>
</svg>
